<?xml version="1.0" encoding="utf-8" ?>
<svg baseProfile="full" height="574" version="1.1" viewBox="0 0 2047 574" width="2047" xmlns="http://www.w3.org/2000/svg" xmlns:ev="http://www.w3.org/2001/xml-events" xmlns:xlink="http://www.w3.org/1999/xlink"><defs /><path d="M 38,387 L 37,388 L 37,470 L 85,470 L 86,469 L 86,388 L 85,387 Z" fill="white" stroke="none" /><path d="M 810,356 L 810,364 L 809,365 L 809,448 L 810,449 L 810,471 L 811,472 L 817,472 L 818,471 L 833,471 L 834,472 L 856,472 L 857,471 L 857,454 L 858,453 L 858,365 L 857,364 L 857,360 L 858,359 L 858,358 L 856,356 Z" fill="white" stroke="none" /><path d="M 162,292 L 150,304 L 150,305 L 140,315 L 140,316 L 137,319 L 137,320 L 136,321 L 136,322 L 137,323 L 137,324 L 142,329 L 142,330 L 149,337 L 149,338 L 156,345 L 156,346 L 164,354 L 164,355 L 172,363 L 172,364 L 180,372 L 180,373 L 189,382 L 189,383 L 197,391 L 197,392 L 203,398 L 203,399 L 212,408 L 212,409 L 219,416 L 219,417 L 226,424 L 226,425 L 236,435 L 236,436 L 243,443 L 243,444 L 251,452 L 251,453 L 258,460 L 258,461 L 266,469 L 267,469 L 268,470 L 314,470 L 315,471 L 325,471 L 326,470 L 326,469 L 324,467 L 324,466 L 317,459 L 317,458 L 307,448 L 307,447 L 298,438 L 298,437 L 288,427 L 288,426 L 274,412 L 274,411 L 265,402 L 265,401 L 258,394 L 258,393 L 248,383 L 248,382 L 240,374 L 240,373 L 229,362 L 229,361 L 220,352 L 220,351 L 212,343 L 212,342 L 204,334 L 204,333 L 196,325 L 196,324 L 184,312 L 184,311 L 167,294 L 167,293 L 166,292 Z" fill="white" stroke="none" /><path d="M 1469,188 L 1468,189 L 1468,471 L 1500,471 L 1501,472 L 1515,472 L 1516,471 L 1516,188 Z" fill="white" stroke="none" /><path d="M 1050,109 L 1050,249 L 1098,249 L 1099,248 L 1099,244 L 1098,243 L 1098,232 L 1099,231 L 1099,200 L 1098,199 L 1098,181 L 1099,180 L 1099,154 L 1102,151 L 1105,151 L 1106,152 L 1116,152 L 1117,151 L 1134,151 L 1135,152 L 1211,152 L 1212,153 L 1216,153 L 1217,154 L 1220,154 L 1221,155 L 1224,155 L 1225,156 L 1226,156 L 1227,157 L 1229,157 L 1230,158 L 1231,158 L 1232,159 L 1233,159 L 1234,160 L 1235,160 L 1236,161 L 1237,161 L 1239,163 L 1240,163 L 1241,164 L 1242,164 L 1245,167 L 1246,167 L 1256,177 L 1256,178 L 1259,181 L 1259,182 L 1261,184 L 1261,185 L 1263,187 L 1263,189 L 1264,190 L 1264,191 L 1265,192 L 1265,193 L 1266,194 L 1266,196 L 1267,197 L 1267,198 L 1268,199 L 1268,201 L 1269,202 L 1269,205 L 1270,206 L 1270,214 L 1271,215 L 1271,223 L 1270,224 L 1270,232 L 1269,233 L 1269,237 L 1268,238 L 1268,240 L 1267,241 L 1267,242 L 1266,243 L 1266,245 L 1265,246 L 1265,247 L 1264,248 L 1264,249 L 1263,250 L 1263,251 L 1262,252 L 1262,253 L 1261,254 L 1261,255 L 1259,257 L 1259,258 L 1256,261 L 1256,262 L 1248,270 L 1247,270 L 1242,275 L 1241,275 L 1240,276 L 1239,276 L 1238,277 L 1237,277 L 1236,278 L 1235,278 L 1234,279 L 1233,279 L 1232,280 L 1231,280 L 1230,281 L 1228,281 L 1227,282 L 1226,282 L 1225,283 L 1223,283 L 1222,284 L 1220,284 L 1219,285 L 1215,285 L 1214,286 L 1210,286 L 1209,287 L 1198,287 L 1197,288 L 1050,288 L 1050,471 L 1051,472 L 1098,472 L 1098,333 L 1101,330 L 1207,330 L 1208,329 L 1217,329 L 1218,328 L 1225,328 L 1226,327 L 1231,327 L 1232,326 L 1235,326 L 1236,325 L 1240,325 L 1241,324 L 1244,324 L 1245,323 L 1247,323 L 1248,322 L 1250,322 L 1251,321 L 1253,321 L 1254,320 L 1256,320 L 1257,319 L 1258,319 L 1259,318 L 1260,318 L 1261,317 L 1262,317 L 1263,316 L 1264,316 L 1265,315 L 1266,315 L 1267,314 L 1268,314 L 1270,312 L 1271,312 L 1272,311 L 1273,311 L 1274,310 L 1275,310 L 1277,308 L 1278,308 L 1281,305 L 1282,305 L 1285,302 L 1286,302 L 1295,293 L 1295,292 L 1299,288 L 1299,287 L 1301,285 L 1301,284 L 1304,281 L 1304,280 L 1305,279 L 1305,278 L 1307,276 L 1307,275 L 1308,274 L 1308,273 L 1309,272 L 1309,271 L 1310,270 L 1310,269 L 1311,268 L 1311,267 L 1312,266 L 1312,265 L 1313,264 L 1313,262 L 1314,261 L 1314,260 L 1315,259 L 1315,257 L 1316,256 L 1316,254 L 1317,253 L 1317,251 L 1318,250 L 1318,247 L 1319,246 L 1319,242 L 1320,241 L 1320,235 L 1321,234 L 1321,206 L 1320,205 L 1320,199 L 1319,198 L 1319,194 L 1318,193 L 1318,190 L 1317,189 L 1317,187 L 1316,186 L 1316,184 L 1315,183 L 1315,181 L 1314,180 L 1314,178 L 1313,177 L 1313,175 L 1312,174 L 1312,173 L 1311,172 L 1311,171 L 1310,170 L 1310,169 L 1309,168 L 1309,167 L 1308,166 L 1308,165 L 1306,163 L 1306,162 L 1305,161 L 1305,160 L 1303,158 L 1303,157 L 1301,155 L 1301,154 L 1299,152 L 1299,151 L 1295,147 L 1295,146 L 1286,137 L 1285,137 L 1282,134 L 1281,134 L 1278,131 L 1277,131 L 1275,129 L 1274,129 L 1273,128 L 1272,128 L 1271,127 L 1270,127 L 1269,126 L 1268,126 L 1267,125 L 1266,125 L 1265,124 L 1264,124 L 1263,123 L 1262,123 L 1261,122 L 1260,122 L 1259,121 L 1258,121 L 1257,120 L 1255,120 L 1254,119 L 1253,119 L 1252,118 L 1250,118 L 1249,117 L 1246,117 L 1245,116 L 1242,116 L 1241,115 L 1239,115 L 1238,114 L 1234,114 L 1233,113 L 1229,113 L 1228,112 L 1221,112 L 1220,111 L 1209,111 L 1208,110 L 1201,110 L 1200,109 Z" fill="white" stroke="none" /><path d="M 359,109 L 359,117 L 358,118 L 358,247 L 359,248 L 359,249 L 406,249 L 406,155 L 407,154 L 407,153 L 409,151 L 415,151 L 416,152 L 420,152 L 421,151 L 517,151 L 518,152 L 525,152 L 526,153 L 529,153 L 530,154 L 533,154 L 534,155 L 535,155 L 536,156 L 538,156 L 539,157 L 540,157 L 541,158 L 542,158 L 543,159 L 544,159 L 545,160 L 546,160 L 548,162 L 549,162 L 551,164 L 552,164 L 556,168 L 557,168 L 565,176 L 565,177 L 568,180 L 568,181 L 571,184 L 571,185 L 572,186 L 572,187 L 573,188 L 573,189 L 574,190 L 574,191 L 575,192 L 575,193 L 576,194 L 576,196 L 577,197 L 577,199 L 578,200 L 578,204 L 579,205 L 579,208 L 580,209 L 580,227 L 579,228 L 579,233 L 578,234 L 578,237 L 577,238 L 577,240 L 576,241 L 576,243 L 575,244 L 575,245 L 574,246 L 574,247 L 573,248 L 573,249 L 572,250 L 572,251 L 571,252 L 571,253 L 569,255 L 569,256 L 566,259 L 566,260 L 555,271 L 554,271 L 550,275 L 549,275 L 548,276 L 547,276 L 545,278 L 544,278 L 543,279 L 542,279 L 541,280 L 539,280 L 538,281 L 537,281 L 536,282 L 535,282 L 534,283 L 532,283 L 531,284 L 528,284 L 527,285 L 524,285 L 523,286 L 518,286 L 517,287 L 492,287 L 491,288 L 474,288 L 473,287 L 468,287 L 467,288 L 457,288 L 456,287 L 436,287 L 435,288 L 434,288 L 433,287 L 429,287 L 428,288 L 415,288 L 414,287 L 413,287 L 412,288 L 359,288 L 358,289 L 358,293 L 359,294 L 358,295 L 358,337 L 359,338 L 359,367 L 358,368 L 358,439 L 359,440 L 359,472 L 406,472 L 406,333 L 409,330 L 481,330 L 485,334 L 485,335 L 486,336 L 486,337 L 488,339 L 488,340 L 490,342 L 490,343 L 491,344 L 491,345 L 493,347 L 493,348 L 495,350 L 495,351 L 497,353 L 497,354 L 499,356 L 499,357 L 501,359 L 501,360 L 503,362 L 503,363 L 505,365 L 505,366 L 507,368 L 507,369 L 509,371 L 509,372 L 512,375 L 512,376 L 514,378 L 514,379 L 516,381 L 516,382 L 518,384 L 518,385 L 520,387 L 520,388 L 522,390 L 522,391 L 524,393 L 524,394 L 526,396 L 526,397 L 528,399 L 528,400 L 530,402 L 530,403 L 532,405 L 532,406 L 535,409 L 535,410 L 536,411 L 536,412 L 539,415 L 539,416 L 541,418 L 541,419 L 543,421 L 543,422 L 545,424 L 545,425 L 547,427 L 547,428 L 549,430 L 549,431 L 551,433 L 551,434 L 553,436 L 553,437 L 555,439 L 555,440 L 557,442 L 557,443 L 559,445 L 559,446 L 561,448 L 561,449 L 562,450 L 562,451 L 564,453 L 564,454 L 566,456 L 566,457 L 568,459 L 568,460 L 571,463 L 571,464 L 573,466 L 573,467 L 575,469 L 575,470 L 576,471 L 577,471 L 578,472 L 634,472 L 634,470 L 633,469 L 633,468 L 631,466 L 631,465 L 628,462 L 628,461 L 626,459 L 626,458 L 624,456 L 624,455 L 622,453 L 622,452 L 620,450 L 620,449 L 617,446 L 617,445 L 615,443 L 615,442 L 613,440 L 613,439 L 611,437 L 611,436 L 609,434 L 609,433 L 607,431 L 607,430 L 605,428 L 605,427 L 602,424 L 602,423 L 600,421 L 600,420 L 598,418 L 598,417 L 595,414 L 595,413 L 593,411 L 593,410 L 591,408 L 591,407 L 589,405 L 589,404 L 587,402 L 587,401 L 584,398 L 584,397 L 582,395 L 582,394 L 580,392 L 580,391 L 578,389 L 578,388 L 576,386 L 576,385 L 573,382 L 573,381 L 571,379 L 571,378 L 569,376 L 569,375 L 567,373 L 567,372 L 565,370 L 565,369 L 563,367 L 563,366 L 561,364 L 561,363 L 558,360 L 558,359 L 556,357 L 556,356 L 554,354 L 554,353 L 552,351 L 552,350 L 550,348 L 550,347 L 547,344 L 547,343 L 545,341 L 545,340 L 543,338 L 543,337 L 541,335 L 541,334 L 538,331 L 538,330 L 535,327 L 535,325 L 537,323 L 547,323 L 548,322 L 551,322 L 552,321 L 554,321 L 555,320 L 557,320 L 558,319 L 560,319 L 561,318 L 563,318 L 564,317 L 566,317 L 567,316 L 569,316 L 570,315 L 571,315 L 572,314 L 573,314 L 574,313 L 575,313 L 577,311 L 578,311 L 579,310 L 580,310 L 581,309 L 582,309 L 584,307 L 585,307 L 586,306 L 587,306 L 590,303 L 591,303 L 595,299 L 596,299 L 600,295 L 601,295 L 602,294 L 602,293 L 607,288 L 607,287 L 610,284 L 610,283 L 612,281 L 612,280 L 614,278 L 614,277 L 616,275 L 616,274 L 617,273 L 617,272 L 618,271 L 618,270 L 620,268 L 620,267 L 621,266 L 621,264 L 622,263 L 622,262 L 623,261 L 623,259 L 624,258 L 624,256 L 625,255 L 625,253 L 626,252 L 626,249 L 627,248 L 627,245 L 628,244 L 628,240 L 629,239 L 629,233 L 630,232 L 630,225 L 631,224 L 631,211 L 630,210 L 630,203 L 629,202 L 629,197 L 628,196 L 628,191 L 627,190 L 627,186 L 626,185 L 626,183 L 625,182 L 625,180 L 624,179 L 624,177 L 623,176 L 623,174 L 622,173 L 622,172 L 621,171 L 621,170 L 620,169 L 620,168 L 619,167 L 619,166 L 618,165 L 618,164 L 617,163 L 617,162 L 615,160 L 615,159 L 614,158 L 614,157 L 612,155 L 612,154 L 610,152 L 610,151 L 607,148 L 607,147 L 594,134 L 593,134 L 591,132 L 590,132 L 587,129 L 586,129 L 584,127 L 583,127 L 582,126 L 581,126 L 579,124 L 578,124 L 577,123 L 576,123 L 575,122 L 574,122 L 573,121 L 572,121 L 571,120 L 569,120 L 568,119 L 567,119 L 566,118 L 564,118 L 563,117 L 562,117 L 561,116 L 559,116 L 558,115 L 556,115 L 555,114 L 552,114 L 551,113 L 548,113 L 547,112 L 543,112 L 542,111 L 538,111 L 537,110 L 531,110 L 530,109 Z" fill="white" stroke="none" /><path d="M 1350,108 L 1349,109 L 1349,150 L 1350,151 L 1352,151 L 1353,152 L 1634,152 L 1636,150 L 1636,109 L 1635,108 L 1627,108 L 1626,109 L 1430,109 L 1429,108 L 1425,108 L 1424,109 L 1411,109 L 1410,108 L 1405,108 L 1404,109 L 1403,109 L 1402,108 L 1395,108 L 1394,109 L 1393,109 L 1392,108 L 1373,108 L 1372,109 L 1370,109 L 1369,108 Z" fill="white" stroke="none" /><path d="M 661,108 L 661,111 L 663,113 L 663,114 L 665,116 L 665,117 L 668,120 L 668,121 L 671,124 L 671,125 L 673,127 L 673,128 L 675,130 L 675,131 L 678,134 L 678,135 L 680,137 L 680,138 L 683,141 L 683,142 L 685,144 L 685,145 L 687,147 L 687,148 L 690,151 L 690,152 L 692,154 L 692,155 L 695,158 L 695,159 L 698,162 L 698,163 L 700,165 L 700,166 L 702,168 L 702,169 L 705,172 L 705,173 L 707,175 L 707,176 L 709,178 L 709,179 L 712,182 L 712,183 L 715,186 L 715,187 L 717,189 L 717,190 L 720,193 L 720,194 L 723,197 L 723,198 L 725,200 L 725,201 L 727,203 L 727,204 L 730,207 L 730,208 L 732,210 L 732,211 L 735,214 L 735,215 L 737,217 L 737,218 L 740,221 L 740,222 L 742,224 L 742,225 L 745,228 L 745,229 L 747,231 L 747,232 L 750,235 L 750,236 L 752,238 L 752,239 L 755,242 L 755,243 L 757,245 L 757,246 L 760,249 L 760,250 L 763,253 L 763,254 L 765,256 L 765,257 L 768,260 L 768,261 L 771,264 L 771,265 L 773,267 L 773,268 L 776,271 L 776,272 L 778,274 L 778,275 L 781,278 L 781,279 L 783,281 L 783,282 L 786,285 L 786,286 L 788,288 L 788,289 L 791,292 L 791,293 L 793,295 L 793,296 L 796,299 L 796,300 L 799,303 L 799,304 L 801,306 L 801,307 L 803,309 L 803,310 L 805,312 L 805,313 L 808,316 L 808,317 L 809,317 L 810,318 L 817,318 L 818,319 L 846,319 L 847,318 L 859,318 L 860,317 L 860,316 L 862,314 L 862,313 L 865,310 L 865,309 L 868,306 L 868,305 L 870,303 L 870,302 L 873,299 L 873,298 L 875,296 L 875,295 L 877,293 L 877,292 L 880,289 L 880,288 L 883,285 L 883,284 L 885,282 L 885,281 L 887,279 L 887,278 L 889,276 L 889,275 L 891,273 L 891,272 L 894,269 L 894,268 L 896,266 L 896,265 L 899,262 L 899,261 L 901,259 L 901,258 L 904,255 L 904,254 L 906,252 L 906,251 L 909,248 L 909,247 L 911,245 L 911,244 L 914,241 L 914,240 L 916,238 L 916,237 L 919,234 L 919,233 L 921,231 L 921,230 L 924,227 L 924,226 L 926,224 L 926,223 L 929,220 L 929,219 L 932,216 L 932,215 L 935,212 L 935,211 L 937,209 L 937,208 L 939,206 L 939,205 L 941,203 L 941,202 L 943,200 L 943,199 L 946,196 L 946,195 L 949,192 L 949,191 L 951,189 L 951,188 L 954,185 L 954,184 L 956,182 L 956,181 L 958,179 L 958,178 L 961,175 L 961,174 L 964,171 L 964,170 L 966,168 L 966,167 L 968,165 L 968,164 L 971,161 L 971,160 L 973,158 L 973,157 L 976,154 L 976,153 L 979,150 L 979,149 L 981,147 L 981,146 L 983,144 L 983,143 L 986,140 L 986,139 L 988,137 L 988,136 L 991,133 L 991,132 L 993,130 L 993,129 L 995,127 L 995,126 L 998,123 L 998,122 L 1001,119 L 1001,118 L 1004,115 L 1004,114 L 1005,113 L 1005,112 L 1006,111 L 1006,109 L 1003,109 L 1002,108 L 1001,108 L 1000,109 L 987,109 L 986,108 L 959,108 L 958,109 L 957,108 L 950,108 L 948,110 L 948,111 L 945,114 L 945,115 L 942,118 L 942,119 L 940,121 L 940,122 L 938,124 L 938,125 L 936,127 L 936,128 L 934,130 L 934,131 L 932,133 L 932,134 L 929,137 L 929,138 L 927,140 L 927,141 L 924,144 L 924,145 L 922,147 L 922,148 L 920,150 L 920,151 L 917,154 L 917,155 L 915,157 L 915,158 L 912,161 L 912,162 L 910,164 L 910,165 L 907,168 L 907,169 L 905,171 L 905,172 L 903,174 L 903,175 L 901,177 L 901,178 L 899,180 L 899,181 L 896,184 L 896,185 L 894,187 L 894,188 L 891,191 L 891,192 L 889,194 L 889,195 L 887,197 L 887,198 L 886,199 L 886,200 L 884,202 L 884,203 L 881,206 L 881,207 L 879,209 L 879,210 L 876,213 L 876,214 L 874,216 L 874,217 L 871,220 L 871,221 L 869,223 L 869,224 L 867,226 L 867,227 L 864,230 L 864,231 L 862,233 L 862,234 L 859,237 L 859,238 L 857,240 L 857,241 L 855,243 L 855,244 L 853,246 L 853,247 L 850,250 L 850,251 L 848,253 L 848,254 L 845,257 L 845,258 L 843,260 L 843,261 L 841,263 L 841,264 L 839,266 L 839,267 L 837,269 L 837,270 L 834,273 L 833,273 L 829,269 L 829,268 L 827,266 L 827,265 L 825,263 L 825,262 L 823,260 L 823,259 L 820,256 L 820,255 L 818,253 L 818,252 L 816,250 L 816,249 L 814,247 L 814,246 L 811,243 L 811,242 L 808,239 L 808,238 L 806,236 L 806,235 L 804,233 L 804,232 L 801,229 L 801,228 L 799,226 L 799,225 L 797,223 L 797,222 L 795,220 L 795,219 L 793,217 L 793,216 L 790,213 L 790,212 L 788,210 L 788,209 L 786,207 L 786,206 L 783,203 L 783,202 L 781,200 L 781,199 L 778,196 L 778,195 L 776,193 L 776,192 L 774,190 L 774,189 L 772,187 L 772,186 L 769,183 L 769,182 L 767,180 L 767,179 L 765,177 L 765,176 L 762,173 L 762,172 L 760,170 L 760,169 L 757,166 L 757,165 L 755,163 L 755,162 L 753,160 L 753,159 L 751,157 L 751,156 L 748,153 L 748,152 L 746,150 L 746,149 L 744,147 L 744,146 L 741,143 L 741,142 L 739,140 L 739,139 L 737,137 L 737,136 L 734,133 L 734,132 L 732,130 L 732,129 L 730,127 L 730,126 L 728,124 L 728,123 L 726,121 L 726,120 L 724,118 L 724,117 L 722,115 L 722,114 L 719,111 L 719,110 L 718,109 L 717,109 L 716,108 Z" fill="white" stroke="none" /><path d="M 252,108 L 244,116 L 244,117 L 234,127 L 234,128 L 228,134 L 228,135 L 223,140 L 223,141 L 216,148 L 216,149 L 205,160 L 205,161 L 194,172 L 194,173 L 186,181 L 186,182 L 179,189 L 179,190 L 171,198 L 171,199 L 161,209 L 161,210 L 153,218 L 153,219 L 147,225 L 147,226 L 140,233 L 140,234 L 132,242 L 132,243 L 124,251 L 124,252 L 118,258 L 118,259 L 111,266 L 111,267 L 102,276 L 102,277 L 92,287 L 92,288 L 86,294 L 86,295 L 81,300 L 79,298 L 79,276 L 78,275 L 78,234 L 76,234 L 62,248 L 61,248 L 56,253 L 55,253 L 49,259 L 48,259 L 44,263 L 43,263 L 39,267 L 39,269 L 40,270 L 40,347 L 41,348 L 42,348 L 43,349 L 91,349 L 93,347 L 94,347 L 95,346 L 95,345 L 109,331 L 109,330 L 124,315 L 124,314 L 134,304 L 134,303 L 144,293 L 144,292 L 150,286 L 150,285 L 159,276 L 159,275 L 171,263 L 171,262 L 186,247 L 186,246 L 196,236 L 196,235 L 211,220 L 211,219 L 220,210 L 220,209 L 229,200 L 229,199 L 242,186 L 242,185 L 254,173 L 254,172 L 267,159 L 267,158 L 279,146 L 279,145 L 293,131 L 293,130 L 300,123 L 300,122 L 308,114 L 308,113 L 311,110 L 311,108 Z" fill="white" stroke="none" /><path d="M 1810,102 L 1809,103 L 1800,103 L 1799,104 L 1793,104 L 1792,105 L 1787,105 L 1786,106 L 1783,106 L 1782,107 L 1778,107 L 1777,108 L 1774,108 L 1773,109 L 1770,109 L 1769,110 L 1767,110 L 1766,111 L 1764,111 L 1763,112 L 1761,112 L 1760,113 L 1758,113 L 1757,114 L 1755,114 L 1754,115 L 1752,115 L 1751,116 L 1750,116 L 1749,117 L 1748,117 L 1747,118 L 1746,118 L 1745,119 L 1743,119 L 1742,120 L 1741,120 L 1740,121 L 1739,121 L 1738,122 L 1737,122 L 1736,123 L 1735,123 L 1734,124 L 1733,124 L 1732,125 L 1731,125 L 1729,127 L 1728,127 L 1727,128 L 1726,128 L 1724,130 L 1723,130 L 1721,132 L 1720,132 L 1718,134 L 1717,134 L 1714,137 L 1713,137 L 1711,139 L 1710,139 L 1706,143 L 1705,143 L 1700,148 L 1699,148 L 1698,149 L 1698,150 L 1682,166 L 1682,167 L 1680,169 L 1680,170 L 1677,173 L 1677,174 L 1675,176 L 1675,177 L 1672,180 L 1672,181 L 1671,182 L 1671,183 L 1669,185 L 1669,186 L 1668,187 L 1668,188 L 1666,190 L 1666,191 L 1665,192 L 1665,193 L 1664,194 L 1664,195 L 1663,196 L 1663,197 L 1661,199 L 1661,200 L 1660,201 L 1660,202 L 1659,203 L 1659,205 L 1658,206 L 1658,207 L 1657,208 L 1657,209 L 1656,210 L 1656,212 L 1655,213 L 1655,214 L 1654,215 L 1654,217 L 1653,218 L 1653,220 L 1652,221 L 1652,223 L 1651,224 L 1651,225 L 1650,226 L 1650,229 L 1649,230 L 1649,232 L 1648,233 L 1648,235 L 1647,236 L 1647,240 L 1646,241 L 1646,246 L 1645,247 L 1645,251 L 1644,252 L 1644,257 L 1643,258 L 1643,266 L 1642,267 L 1642,277 L 1641,278 L 1641,303 L 1642,304 L 1642,313 L 1643,314 L 1643,322 L 1644,323 L 1644,327 L 1645,328 L 1645,333 L 1646,334 L 1646,338 L 1647,339 L 1647,342 L 1648,343 L 1648,345 L 1649,346 L 1649,348 L 1650,349 L 1650,352 L 1651,353 L 1651,355 L 1652,356 L 1652,358 L 1653,359 L 1653,360 L 1654,361 L 1654,363 L 1655,364 L 1655,366 L 1656,367 L 1656,368 L 1657,369 L 1657,371 L 1658,372 L 1658,373 L 1659,374 L 1659,375 L 1660,376 L 1660,377 L 1661,378 L 1661,379 L 1662,380 L 1662,381 L 1663,382 L 1663,383 L 1664,384 L 1664,385 L 1665,386 L 1665,387 L 1666,388 L 1666,389 L 1668,391 L 1668,392 L 1669,393 L 1669,394 L 1671,396 L 1671,397 L 1673,399 L 1673,400 L 1675,402 L 1675,403 L 1678,406 L 1678,407 L 1682,411 L 1682,412 L 1686,416 L 1686,417 L 1699,430 L 1700,430 L 1706,436 L 1707,436 L 1710,439 L 1711,439 L 1714,442 L 1715,442 L 1717,444 L 1718,444 L 1720,446 L 1721,446 L 1723,448 L 1724,448 L 1726,450 L 1727,450 L 1729,452 L 1730,452 L 1731,453 L 1732,453 L 1733,454 L 1734,454 L 1735,455 L 1736,455 L 1737,456 L 1738,456 L 1739,457 L 1740,457 L 1741,458 L 1742,458 L 1743,459 L 1745,459 L 1746,460 L 1747,460 L 1748,461 L 1749,461 L 1750,462 L 1752,462 L 1753,463 L 1754,463 L 1755,464 L 1757,464 L 1758,465 L 1760,465 L 1761,466 L 1763,466 L 1764,467 L 1766,467 L 1767,468 L 1769,468 L 1770,469 L 1773,469 L 1774,470 L 1776,470 L 1777,471 L 1781,471 L 1782,472 L 1785,472 L 1786,473 L 1791,473 L 1792,474 L 1797,474 L 1798,475 L 1806,475 L 1807,476 L 1820,476 L 1821,477 L 1839,477 L 1840,476 L 1851,476 L 1852,475 L 1861,475 L 1862,474 L 1866,474 L 1867,473 L 1872,473 L 1873,472 L 1877,472 L 1878,471 L 1881,471 L 1882,470 L 1885,470 L 1886,469 L 1888,469 L 1889,468 L 1892,468 L 1893,467 L 1895,467 L 1896,466 L 1898,466 L 1899,465 L 1901,465 L 1902,464 L 1904,464 L 1905,463 L 1906,463 L 1907,462 L 1908,462 L 1909,461 L 1910,461 L 1911,460 L 1913,460 L 1914,459 L 1915,459 L 1916,458 L 1917,458 L 1918,457 L 1919,457 L 1920,456 L 1921,456 L 1922,455 L 1923,455 L 1924,454 L 1925,454 L 1926,453 L 1927,453 L 1928,452 L 1929,452 L 1931,450 L 1932,450 L 1933,449 L 1934,449 L 1936,447 L 1937,447 L 1939,445 L 1940,445 L 1942,443 L 1943,443 L 1945,441 L 1946,441 L 1949,438 L 1950,438 L 1954,434 L 1955,434 L 1961,428 L 1962,428 L 1971,419 L 1971,418 L 1976,413 L 1976,412 L 1980,408 L 1980,407 L 1982,405 L 1982,404 L 1984,402 L 1984,401 L 1986,399 L 1986,398 L 1988,396 L 1988,395 L 1990,393 L 1990,392 L 1992,390 L 1992,389 L 1993,388 L 1993,387 L 1995,385 L 1995,384 L 1996,383 L 1996,382 L 1997,381 L 1997,380 L 1998,379 L 1998,377 L 1999,376 L 1999,375 L 2000,374 L 2000,373 L 2001,372 L 2001,371 L 2002,370 L 2002,369 L 2003,368 L 2003,366 L 2004,365 L 2004,363 L 2005,362 L 2005,361 L 2006,360 L 2006,358 L 2007,357 L 2007,355 L 2008,354 L 2008,352 L 2009,351 L 2009,348 L 2010,347 L 2010,345 L 2011,344 L 2011,341 L 2012,340 L 2012,337 L 2013,336 L 2013,332 L 2014,331 L 2014,327 L 2015,326 L 2015,321 L 2016,320 L 2016,314 L 2017,313 L 2017,295 L 2018,294 L 2018,287 L 2017,286 L 2017,267 L 2016,266 L 2016,259 L 2015,258 L 2015,253 L 2014,252 L 2014,247 L 2013,246 L 2013,242 L 2012,241 L 2012,238 L 2011,237 L 2011,234 L 2010,233 L 2010,230 L 2009,229 L 2009,227 L 2008,226 L 2008,224 L 2007,223 L 2007,221 L 2006,220 L 2006,218 L 2005,217 L 2005,215 L 2004,214 L 2004,213 L 2003,212 L 2003,210 L 2002,209 L 2002,208 L 2001,207 L 2001,206 L 2000,205 L 2000,204 L 1999,203 L 1999,202 L 1998,201 L 1998,200 L 1997,199 L 1997,198 L 1996,197 L 1996,196 L 1995,195 L 1995,194 L 1994,193 L 1994,192 L 1993,191 L 1993,190 L 1991,188 L 1991,187 L 1989,185 L 1989,184 L 1988,183 L 1988,182 L 1986,180 L 1986,179 L 1984,177 L 1984,176 L 1981,173 L 1981,172 L 1979,170 L 1979,169 L 1976,166 L 1976,165 L 1956,145 L 1955,145 L 1951,141 L 1950,141 L 1946,137 L 1945,137 L 1943,135 L 1942,135 L 1940,133 L 1939,133 L 1937,131 L 1936,131 L 1934,129 L 1933,129 L 1932,128 L 1931,128 L 1930,127 L 1929,127 L 1928,126 L 1927,126 L 1926,125 L 1925,125 L 1924,124 L 1923,124 L 1921,122 L 1919,122 L 1918,121 L 1917,121 L 1916,120 L 1915,120 L 1914,119 L 1913,119 L 1912,118 L 1911,118 L 1910,117 L 1909,117 L 1908,116 L 1906,116 L 1905,115 L 1903,115 L 1902,114 L 1901,114 L 1900,113 L 1898,113 L 1897,112 L 1895,112 L 1894,111 L 1892,111 L 1891,110 L 1888,110 L 1887,109 L 1885,109 L 1884,108 L 1881,108 L 1880,107 L 1876,107 L 1875,106 L 1872,106 L 1871,105 L 1867,105 L 1866,104 L 1859,104 L 1858,103 L 1850,103 L 1849,102 Z" fill="white" stroke="none" /><circle cx="1829.2197265625" cy="289.18060302734375" fill="#1a1f33" r="146.092529296875" stroke="none" /></svg>